<?xml version="1.0" encoding="UTF-8"?><svg xmlns="http://www.w3.org/2000/svg" width="620" height="980" viewBox="0 0 620 980"><rect x="0" y="0" width="620" height="980" fill="#0f1020"/><rect x="14" y="14" width="592" height="952" rx="8" fill="#121327"/><text x="48" y="88" fill="#f4f6ff" font-size="56" font-family="Segoe UI, Arial">AK-47</text><text x="572" y="88" fill="#ff4f8f" font-size="56" text-anchor="end" font-family="Segoe UI, Arial">30</text><text x="48" y="42" fill="#d7d9ea" font-size="22" font-family="Segoe UI, Arial">AK-47 RECOIL COMPENSATION</text><text x="48" y="960" fill="#d7d9ea" font-size="18" font-family="Segoe UI, Arial">source: inverse spray path (mouse drag)</text><path d="M 98.27 932.00 L 50.87 903.20 L 48.00 872.87 L 112.88 843.16 L 170.16 809.98 L 216.32 775.89 L 273.31 749.63 L 311.84 727.21 L 363.59 695.13 L 440.75 672.41 L 523.66 647.13 L 572.00 610.79 L 562.35 553.31 L 521.42 504.88 L 481.31 459.74 L 445.05 416.19 L 427.58 391.87 L 419.59 370.66 L 401.79 331.16 L 389.91 294.10 L 382.07 258.99 L 373.59 226.21 L 364.55 195.66 L 351.97 168.89 L 339.22 139.80 L 334.91 120.39 L 332.10 101.14 L 333.69 81.56 L 335.57 64.08 L 337.35 48.00" fill="none" stroke="#ff4f8f" stroke-width="6" stroke-linecap="round" stroke-linejoin="round"/><circle cx="98.27" cy="932.00" r="3.4" fill="#ff4f8f"/>

<circle cx="48.00" cy="872.87" r="3.4" fill="#ff4f8f"/>

<circle cx="170.16" cy="809.98" r="3.4" fill="#ff4f8f"/>

<circle cx="273.31" cy="749.63" r="3.4" fill="#ff4f8f"/>

<circle cx="363.59" cy="695.13" r="3.4" fill="#ff4f8f"/>

<circle cx="523.66" cy="647.13" r="3.4" fill="#ff4f8f"/>

<circle cx="562.35" cy="553.31" r="3.4" fill="#ff4f8f"/>

<circle cx="481.31" cy="459.74" r="3.4" fill="#ff4f8f"/>

<circle cx="427.58" cy="391.87" r="3.4" fill="#ff4f8f"/>

<circle cx="401.79" cy="331.16" r="3.4" fill="#ff4f8f"/>

<circle cx="382.07" cy="258.99" r="3.4" fill="#ff4f8f"/>

<circle cx="364.55" cy="195.66" r="3.4" fill="#ff4f8f"/>

<circle cx="339.22" cy="139.80" r="3.4" fill="#ff4f8f"/>

<circle cx="332.10" cy="101.14" r="3.4" fill="#ff4f8f"/>

<circle cx="335.57" cy="64.08" r="3.4" fill="#ff4f8f"/>
</svg>