<?xml version="1.0" encoding="UTF-8"?><svg xmlns="http://www.w3.org/2000/svg" width="620" height="980" viewBox="0 0 620 980"><rect x="0" y="0" width="620" height="980" fill="#0f1020"/><rect x="14" y="14" width="592" height="952" rx="8" fill="#121327"/><text x="48" y="88" fill="#f4f6ff" font-size="56" font-family="Segoe UI, Arial">AK-47</text><text x="572" y="88" fill="#ff4f8f" font-size="56" text-anchor="end" font-family="Segoe UI, Arial">30</text><text x="48" y="42" fill="#d7d9ea" font-size="22" font-family="Segoe UI, Arial">AK-47 SPRAY PATTERN</text><text x="48" y="960" fill="#d7d9ea" font-size="18" font-family="Segoe UI, Arial">source: SprayLab 30-shot analysis</text><circle cx="310.00" cy="903.20" r="5.5" fill="#ff4f8f"/><text x="318.00" y="895.20" fill="#ffb6d2" font-size="9">1</text>
<circle cx="310.94" cy="891.14" r="5.5" fill="#ff4f8f"/><text x="318.94" y="883.14" fill="#ffb6d2" font-size="9">2</text>
<circle cx="311.92" cy="878.03" r="5.5" fill="#ff4f8f"/><text x="319.92" y="870.03" fill="#ffb6d2" font-size="9">3</text>
<circle cx="312.76" cy="863.34" r="5.5" fill="#ff4f8f"/><text x="320.76" y="855.34" fill="#ffb6d2" font-size="9">4</text>
<circle cx="311.28" cy="848.90" r="5.5" fill="#ff4f8f"/><text x="319.28" y="840.90" fill="#ffb6d2" font-size="9">5</text>
<circle cx="309.02" cy="834.35" r="5.5" fill="#ff4f8f"/><text x="317.02" y="826.35" fill="#ffb6d2" font-size="9">6</text>
<circle cx="302.32" cy="812.53" r="5.5" fill="#ff4f8f"/><text x="310.32" y="804.53" fill="#ffb6d2" font-size="9">7</text>
<circle cx="295.70" cy="792.45" r="5.5" fill="#ff4f8f"/><text x="303.70" y="784.45" fill="#ffb6d2" font-size="9">8</text>
<circle cx="290.95" cy="769.55" r="5.5" fill="#ff4f8f"/><text x="298.95" y="761.55" fill="#ffb6d2" font-size="9">9</text>
<circle cx="286.50" cy="744.96" r="5.5" fill="#ff4f8f"/><text x="294.50" y="736.96" fill="#ffb6d2" font-size="9">10</text>
<circle cx="282.38" cy="718.62" r="5.5" fill="#ff4f8f"/><text x="290.38" y="710.62" fill="#ffb6d2" font-size="9">11</text>
<circle cx="276.13" cy="690.83" r="5.5" fill="#ff4f8f"/><text x="284.13" y="682.83" fill="#ffb6d2" font-size="9">12</text>
<circle cx="266.78" cy="661.21" r="5.5" fill="#ff4f8f"/><text x="274.78" y="653.21" fill="#ffb6d2" font-size="9">13</text>
<circle cx="262.58" cy="645.30" r="5.5" fill="#ff4f8f"/><text x="270.58" y="637.30" fill="#ffb6d2" font-size="9">14</text>
<circle cx="253.40" cy="627.06" r="5.5" fill="#ff4f8f"/><text x="261.40" y="619.06" fill="#ffb6d2" font-size="9">15</text>
<circle cx="234.34" cy="594.39" r="5.5" fill="#ff4f8f"/><text x="242.34" y="586.39" fill="#ffb6d2" font-size="9">16</text>
<circle cx="213.26" cy="560.54" r="5.5" fill="#ff4f8f"/><text x="221.26" y="552.54" fill="#ffb6d2" font-size="9">17</text>
<circle cx="191.75" cy="524.22" r="5.5" fill="#ff4f8f"/><text x="199.75" y="516.22" fill="#ffb6d2" font-size="9">18</text>
<circle cx="186.68" cy="481.11" r="5.5" fill="#ff4f8f"/><text x="194.68" y="473.11" fill="#ffb6d2" font-size="9">19</text>
<circle cx="212.08" cy="453.85" r="5.5" fill="#ff4f8f"/><text x="220.08" y="445.85" fill="#ffb6d2" font-size="9">20</text>
<circle cx="255.66" cy="434.90" r="5.5" fill="#ff4f8f"/><text x="263.66" y="426.90" fill="#ffb6d2" font-size="9">21</text>
<circle cx="296.21" cy="417.85" r="5.5" fill="#ff4f8f"/><text x="304.21" y="409.85" fill="#ffb6d2" font-size="9">22</text>
<circle cx="323.41" cy="393.79" r="5.5" fill="#ff4f8f"/><text x="331.41" y="385.79" fill="#ffb6d2" font-size="9">23</text>
<circle cx="343.66" cy="376.98" r="5.5" fill="#ff4f8f"/><text x="351.66" y="368.98" fill="#ffb6d2" font-size="9">24</text>
<circle cx="373.61" cy="357.29" r="5.5" fill="#ff4f8f"/><text x="381.61" y="349.29" fill="#ffb6d2" font-size="9">25</text>
<circle cx="397.87" cy="331.71" r="5.5" fill="#ff4f8f"/><text x="405.87" y="323.71" fill="#ffb6d2" font-size="9">26</text>
<circle cx="427.98" cy="306.83" r="5.5" fill="#ff4f8f"/><text x="435.98" y="298.83" fill="#ffb6d2" font-size="9">27</text>
<circle cx="462.07" cy="284.55" r="5.5" fill="#ff4f8f"/><text x="470.07" y="276.55" fill="#ffb6d2" font-size="9">28</text>
<circle cx="460.57" cy="261.80" r="5.5" fill="#ff4f8f"/><text x="468.57" y="253.80" fill="#ffb6d2" font-size="9">29</text>
<circle cx="435.65" cy="240.20" r="5.5" fill="#ff4f8f"/><text x="443.65" y="232.20" fill="#ffb6d2" font-size="9">30</text></svg>