<?xml version="1.0" encoding="UTF-8"?>
<svg xmlns="http://www.w3.org/2000/svg" width="960" height="640" viewBox="0 0 960 640">
  <rect x="0" y="0" width="960" height="640" fill="#0b111a"/>
  <rect x="64" y="64" width="832" height="512" fill="#101a28" stroke="#2a3f5f" stroke-width="1.2"/>
  <line x1="64.00" y1="64" x2="64.00" y2="576" stroke="rgba(124,153,195,0.18)" stroke-width="1"/>
  <line x1="64" y1="64.00" x2="896" y2="64.00" stroke="rgba(124,153,195,0.18)" stroke-width="1"/>
  <line x1="147.20" y1="64" x2="147.20" y2="576" stroke="rgba(124,153,195,0.18)" stroke-width="1"/>
  <line x1="64" y1="115.20" x2="896" y2="115.20" stroke="rgba(124,153,195,0.18)" stroke-width="1"/>
  <line x1="230.40" y1="64" x2="230.40" y2="576" stroke="rgba(124,153,195,0.18)" stroke-width="1"/>
  <line x1="64" y1="166.40" x2="896" y2="166.40" stroke="rgba(124,153,195,0.18)" stroke-width="1"/>
  <line x1="313.60" y1="64" x2="313.60" y2="576" stroke="rgba(124,153,195,0.18)" stroke-width="1"/>
  <line x1="64" y1="217.60" x2="896" y2="217.60" stroke="rgba(124,153,195,0.18)" stroke-width="1"/>
  <line x1="396.80" y1="64" x2="396.80" y2="576" stroke="rgba(124,153,195,0.18)" stroke-width="1"/>
  <line x1="64" y1="268.80" x2="896" y2="268.80" stroke="rgba(124,153,195,0.18)" stroke-width="1"/>
  <line x1="480.00" y1="64" x2="480.00" y2="576" stroke="rgba(181,208,247,0.35)" stroke-width="1.4"/>
  <line x1="64" y1="320.00" x2="896" y2="320.00" stroke="rgba(181,208,247,0.35)" stroke-width="1.4"/>
  <line x1="563.20" y1="64" x2="563.20" y2="576" stroke="rgba(124,153,195,0.18)" stroke-width="1"/>
  <line x1="64" y1="371.20" x2="896" y2="371.20" stroke="rgba(124,153,195,0.18)" stroke-width="1"/>
  <line x1="646.40" y1="64" x2="646.40" y2="576" stroke="rgba(124,153,195,0.18)" stroke-width="1"/>
  <line x1="64" y1="422.40" x2="896" y2="422.40" stroke="rgba(124,153,195,0.18)" stroke-width="1"/>
  <line x1="729.60" y1="64" x2="729.60" y2="576" stroke="rgba(124,153,195,0.18)" stroke-width="1"/>
  <line x1="64" y1="473.60" x2="896" y2="473.60" stroke="rgba(124,153,195,0.18)" stroke-width="1"/>
  <line x1="812.80" y1="64" x2="812.80" y2="576" stroke="rgba(124,153,195,0.18)" stroke-width="1"/>
  <line x1="64" y1="524.80" x2="896" y2="524.80" stroke="rgba(124,153,195,0.18)" stroke-width="1"/>
  <line x1="896.00" y1="64" x2="896.00" y2="576" stroke="rgba(124,153,195,0.18)" stroke-width="1"/>
  <line x1="64" y1="576.00" x2="896" y2="576.00" stroke="rgba(124,153,195,0.18)" stroke-width="1"/>
  <line x1="480.00" y1="345.60" x2="480.00" y2="345.60" stroke="rgba(255,108,108,0.45)" stroke-width="1"/>
  <line x1="479.71" y1="346.77" x2="479.71" y2="346.77" stroke="rgba(255,108,108,0.45)" stroke-width="1"/>
  <line x1="479.55" y1="348.59" x2="479.55" y2="348.59" stroke="rgba(255,108,108,0.45)" stroke-width="1"/>
  <line x1="479.51" y1="351.05" x2="479.51" y2="351.05" stroke="rgba(255,108,108,0.45)" stroke-width="1"/>
  <line x1="479.90" y1="353.68" x2="479.90" y2="353.68" stroke="rgba(255,108,108,0.45)" stroke-width="1"/>
  <line x1="480.75" y1="358.68" x2="480.75" y2="358.68" stroke="rgba(255,108,108,0.45)" stroke-width="1"/>
  <line x1="480.31" y1="363.57" x2="480.31" y2="363.57" stroke="rgba(255,108,108,0.45)" stroke-width="1"/>
  <line x1="482.23" y1="369.04" x2="482.23" y2="369.04" stroke="rgba(255,108,108,0.45)" stroke-width="1"/>
  <line x1="479.73" y1="376.08" x2="479.73" y2="376.08" stroke="rgba(255,108,108,0.45)" stroke-width="1"/>
  <line x1="478.04" y1="382.25" x2="478.04" y2="382.25" stroke="rgba(255,108,108,0.45)" stroke-width="1"/>
  <line x1="473.58" y1="390.68" x2="473.58" y2="390.68" stroke="rgba(255,108,108,0.45)" stroke-width="1"/>
  <line x1="469.05" y1="398.48" x2="469.05" y2="398.48" stroke="rgba(255,108,108,0.45)" stroke-width="1"/>
  <line x1="465.86" y1="408.11" x2="465.86" y2="408.11" stroke="rgba(255,108,108,0.45)" stroke-width="1"/>
  <line x1="458.63" y1="417.98" x2="458.63" y2="417.98" stroke="rgba(255,108,108,0.45)" stroke-width="1"/>
  <line x1="453.27" y1="429.04" x2="453.27" y2="429.04" stroke="rgba(255,108,108,0.45)" stroke-width="1"/>
  <line x1="446.40" y1="441.49" x2="446.40" y2="441.49" stroke="rgba(255,108,108,0.45)" stroke-width="1"/>
  <line x1="438.99" y1="454.34" x2="438.99" y2="454.34" stroke="rgba(255,108,108,0.45)" stroke-width="1"/>
  <line x1="429.76" y1="468.02" x2="429.76" y2="468.02" stroke="rgba(255,108,108,0.45)" stroke-width="1"/>
  <line x1="423.69" y1="483.13" x2="423.69" y2="483.13" stroke="rgba(255,108,108,0.45)" stroke-width="1"/>
  <line x1="416.77" y1="497.62" x2="416.77" y2="497.62" stroke="rgba(255,108,108,0.45)" stroke-width="1"/>
  <line x1="413.31" y1="517.99" x2="413.31" y2="517.99" stroke="rgba(255,108,108,0.45)" stroke-width="1"/>
  <line x1="414.57" y1="535.95" x2="414.57" y2="535.95" stroke="rgba(255,108,108,0.45)" stroke-width="1"/>
  <line x1="418.90" y1="553.60" x2="418.90" y2="553.60" stroke="rgba(255,108,108,0.45)" stroke-width="1"/>
  <line x1="427.21" y1="564.47" x2="427.21" y2="564.47" stroke="rgba(255,108,108,0.45)" stroke-width="1"/>
  <line x1="434.58" y1="581.12" x2="434.58" y2="581.12" stroke="rgba(255,108,108,0.45)" stroke-width="1"/>
  <polyline points="480.00,345.60 479.71,346.77 479.55,348.59 479.51,351.05 479.90,353.68 480.75,358.68 480.31,363.57 482.23,369.04 479.73,376.08 478.04,382.25 473.58,390.68 469.05,398.48 465.86,408.11 458.63,417.98 453.27,429.04 446.40,441.49 438.99,454.34 429.76,468.02 423.69,483.13 416.77,497.62 413.31,517.99 414.57,535.95 418.90,553.60 427.21,564.47 434.58,581.12" fill="none" stroke="#f2ca61" stroke-width="2.1"/>
  <polyline points="480.00,345.60 479.71,346.77 479.55,348.59 479.51,351.05 479.90,353.68 480.75,358.68 480.31,363.57 482.23,369.04 479.73,376.08 478.04,382.25 473.58,390.68 469.05,398.48 465.86,408.11 458.63,417.98 453.27,429.04 446.40,441.49 438.99,454.34 429.76,468.02 423.69,483.13 416.77,497.62 413.31,517.99 414.57,535.95 418.90,553.60 427.21,564.47 434.58,581.12" fill="none" stroke="#63daff" stroke-width="2.1"/>
  <text x="486.00" y="339.60" fill="#d7ecff" font-size="10">1</text>
  <text x="485.90" y="347.68" fill="#d7ecff" font-size="10">5</text>
  <text x="484.04" y="376.25" fill="#d7ecff" font-size="10">10</text>
  <text x="459.27" y="423.04" fill="#d7ecff" font-size="10">15</text>
  <text x="422.77" y="491.62" fill="#d7ecff" font-size="10">20</text>
  <text x="440.58" y="575.12" fill="#d7ecff" font-size="10">25</text>
  <text x="64" y="28" fill="#e6f0ff" font-size="20" font-family="Consolas, monospace">M4A1_S 20m UNSCOPED</text>
  <text x="64" y="50" fill="#b9d0ef" font-size="13" font-family="Consolas, monospace">weapon=m4a1_s state=unscoped distance=20m | shots=25</text>
  <text x="64" y="70" fill="#9dc0e8" font-size="12" font-family="Consolas, monospace">RMSE10=0.000 RMSE(all)=0.000 MAX=0.000</text>
  <rect x="700" y="18" width="232" height="70" rx="8" fill="#0f1826" stroke="#2a3b57"/>
  <circle cx="718" cy="38" r="5" fill="#63daff"/>
  <text x="730" y="42" fill="#cfeaff" font-size="12" font-family="Consolas, monospace">Current</text>
  <circle cx="718" cy="58" r="5" fill="#f2ca61"/>
  <text x="730" y="62" fill="#fff2cf" font-size="12" font-family="Consolas, monospace">Reference</text>
  <circle cx="718" cy="78" r="5" fill="#ff7a7a"/>
  <text x="730" y="82" fill="#ffc8c8" font-size="12" font-family="Consolas, monospace">Delta</text>
</svg>