<?xml version="1.0" encoding="UTF-8"?>
<svg xmlns="http://www.w3.org/2000/svg" width="960" height="640" viewBox="0 0 960 640">
  <rect x="0" y="0" width="960" height="640" fill="#0b111a"/>
  <rect x="64" y="64" width="832" height="512" fill="#101a28" stroke="#2a3f5f" stroke-width="1.2"/>
  <line x1="64.00" y1="64" x2="64.00" y2="576" stroke="rgba(124,153,195,0.18)" stroke-width="1"/>
  <line x1="64" y1="64.00" x2="896" y2="64.00" stroke="rgba(124,153,195,0.18)" stroke-width="1"/>
  <line x1="147.20" y1="64" x2="147.20" y2="576" stroke="rgba(124,153,195,0.18)" stroke-width="1"/>
  <line x1="64" y1="115.20" x2="896" y2="115.20" stroke="rgba(124,153,195,0.18)" stroke-width="1"/>
  <line x1="230.40" y1="64" x2="230.40" y2="576" stroke="rgba(124,153,195,0.18)" stroke-width="1"/>
  <line x1="64" y1="166.40" x2="896" y2="166.40" stroke="rgba(124,153,195,0.18)" stroke-width="1"/>
  <line x1="313.60" y1="64" x2="313.60" y2="576" stroke="rgba(124,153,195,0.18)" stroke-width="1"/>
  <line x1="64" y1="217.60" x2="896" y2="217.60" stroke="rgba(124,153,195,0.18)" stroke-width="1"/>
  <line x1="396.80" y1="64" x2="396.80" y2="576" stroke="rgba(124,153,195,0.18)" stroke-width="1"/>
  <line x1="64" y1="268.80" x2="896" y2="268.80" stroke="rgba(124,153,195,0.18)" stroke-width="1"/>
  <line x1="480.00" y1="64" x2="480.00" y2="576" stroke="rgba(181,208,247,0.35)" stroke-width="1.4"/>
  <line x1="64" y1="320.00" x2="896" y2="320.00" stroke="rgba(181,208,247,0.35)" stroke-width="1.4"/>
  <line x1="563.20" y1="64" x2="563.20" y2="576" stroke="rgba(124,153,195,0.18)" stroke-width="1"/>
  <line x1="64" y1="371.20" x2="896" y2="371.20" stroke="rgba(124,153,195,0.18)" stroke-width="1"/>
  <line x1="646.40" y1="64" x2="646.40" y2="576" stroke="rgba(124,153,195,0.18)" stroke-width="1"/>
  <line x1="64" y1="422.40" x2="896" y2="422.40" stroke="rgba(124,153,195,0.18)" stroke-width="1"/>
  <line x1="729.60" y1="64" x2="729.60" y2="576" stroke="rgba(124,153,195,0.18)" stroke-width="1"/>
  <line x1="64" y1="473.60" x2="896" y2="473.60" stroke="rgba(124,153,195,0.18)" stroke-width="1"/>
  <line x1="812.80" y1="64" x2="812.80" y2="576" stroke="rgba(124,153,195,0.18)" stroke-width="1"/>
  <line x1="64" y1="524.80" x2="896" y2="524.80" stroke="rgba(124,153,195,0.18)" stroke-width="1"/>
  <line x1="896.00" y1="64" x2="896.00" y2="576" stroke="rgba(124,153,195,0.18)" stroke-width="1"/>
  <line x1="64" y1="576.00" x2="896" y2="576.00" stroke="rgba(124,153,195,0.18)" stroke-width="1"/>
  <line x1="480.00" y1="345.60" x2="480.00" y2="345.60" stroke="rgba(255,108,108,0.45)" stroke-width="1"/>
  <line x1="480.84" y1="347.62" x2="480.84" y2="347.62" stroke="rgba(255,108,108,0.45)" stroke-width="1"/>
  <line x1="480.70" y1="350.70" x2="480.70" y2="350.70" stroke="rgba(255,108,108,0.45)" stroke-width="1"/>
  <line x1="481.05" y1="354.53" x2="481.05" y2="354.53" stroke="rgba(255,108,108,0.45)" stroke-width="1"/>
  <line x1="480.91" y1="358.88" x2="480.91" y2="358.88" stroke="rgba(255,108,108,0.45)" stroke-width="1"/>
  <line x1="478.95" y1="363.82" x2="478.95" y2="363.82" stroke="rgba(255,108,108,0.45)" stroke-width="1"/>
  <line x1="478.10" y1="370.43" x2="478.10" y2="370.43" stroke="rgba(255,108,108,0.45)" stroke-width="1"/>
  <line x1="476.45" y1="377.83" x2="476.45" y2="377.83" stroke="rgba(255,108,108,0.45)" stroke-width="1"/>
  <line x1="474.35" y1="386.25" x2="474.35" y2="386.25" stroke="rgba(255,108,108,0.45)" stroke-width="1"/>
  <line x1="473.66" y1="395.15" x2="473.66" y2="395.15" stroke="rgba(255,108,108,0.45)" stroke-width="1"/>
  <line x1="470.62" y1="406.72" x2="470.62" y2="406.72" stroke="rgba(255,108,108,0.45)" stroke-width="1"/>
  <line x1="468.69" y1="418.60" x2="468.69" y2="418.60" stroke="rgba(255,108,108,0.45)" stroke-width="1"/>
  <line x1="465.57" y1="429.13" x2="465.57" y2="429.13" stroke="rgba(255,108,108,0.45)" stroke-width="1"/>
  <line x1="460.58" y1="446.60" x2="460.58" y2="446.60" stroke="rgba(255,108,108,0.45)" stroke-width="1"/>
  <line x1="459.35" y1="452.62" x2="459.35" y2="452.62" stroke="rgba(255,108,108,0.45)" stroke-width="1"/>
  <line x1="454.73" y1="464.11" x2="454.73" y2="464.11" stroke="rgba(255,108,108,0.45)" stroke-width="1"/>
  <line x1="444.02" y1="482.55" x2="444.02" y2="482.55" stroke="rgba(255,108,108,0.45)" stroke-width="1"/>
  <line x1="434.30" y1="500.94" x2="434.30" y2="500.94" stroke="rgba(255,108,108,0.45)" stroke-width="1"/>
  <line x1="424.72" y1="520.49" x2="424.72" y2="520.49" stroke="rgba(255,108,108,0.45)" stroke-width="1"/>
  <line x1="420.03" y1="540.91" x2="420.03" y2="540.91" stroke="rgba(255,108,108,0.45)" stroke-width="1"/>
  <line x1="434.97" y1="557.43" x2="434.97" y2="557.43" stroke="rgba(255,108,108,0.45)" stroke-width="1"/>
  <line x1="456.20" y1="574.67" x2="456.20" y2="574.67" stroke="rgba(255,108,108,0.45)" stroke-width="1"/>
  <line x1="458.11" y1="581.12" x2="458.11" y2="581.12" stroke="rgba(255,108,108,0.45)" stroke-width="1"/>
  <line x1="456.36" y1="580.52" x2="456.36" y2="580.52" stroke="rgba(255,108,108,0.45)" stroke-width="1"/>
  <line x1="458.33" y1="580.72" x2="458.33" y2="580.72" stroke="rgba(255,108,108,0.45)" stroke-width="1"/>
  <line x1="459.74" y1="577.15" x2="459.74" y2="577.15" stroke="rgba(255,108,108,0.45)" stroke-width="1"/>
  <line x1="458.32" y1="580.71" x2="458.32" y2="580.71" stroke="rgba(255,108,108,0.45)" stroke-width="1"/>
  <line x1="458.10" y1="579.76" x2="458.10" y2="579.76" stroke="rgba(255,108,108,0.45)" stroke-width="1"/>
  <line x1="458.33" y1="580.73" x2="458.33" y2="580.73" stroke="rgba(255,108,108,0.45)" stroke-width="1"/>
  <line x1="458.32" y1="580.72" x2="458.32" y2="580.72" stroke="rgba(255,108,108,0.45)" stroke-width="1"/>
  <polyline points="480.00,345.60 480.84,347.62 480.70,350.70 481.05,354.53 480.91,358.88 478.95,363.82 478.10,370.43 476.45,377.83 474.35,386.25 473.66,395.15 470.62,406.72 468.69,418.60 465.57,429.13 460.58,446.60 459.35,452.62 454.73,464.11 444.02,482.55 434.30,500.94 424.72,520.49 420.03,540.91 434.97,557.43 456.20,574.67 458.11,581.12 456.36,580.52 458.33,580.72 459.74,577.15 458.32,580.71 458.10,579.76 458.33,580.73 458.32,580.72" fill="none" stroke="#f2ca61" stroke-width="2.1"/>
  <polyline points="480.00,345.60 480.84,347.62 480.70,350.70 481.05,354.53 480.91,358.88 478.95,363.82 478.10,370.43 476.45,377.83 474.35,386.25 473.66,395.15 470.62,406.72 468.69,418.60 465.57,429.13 460.58,446.60 459.35,452.62 454.73,464.11 444.02,482.55 434.30,500.94 424.72,520.49 420.03,540.91 434.97,557.43 456.20,574.67 458.11,581.12 456.36,580.52 458.33,580.72 459.74,577.15 458.32,580.71 458.10,579.76 458.33,580.73 458.32,580.72" fill="none" stroke="#63daff" stroke-width="2.1"/>
  <text x="486.00" y="339.60" fill="#d7ecff" font-size="10">1</text>
  <text x="486.91" y="352.88" fill="#d7ecff" font-size="10">5</text>
  <text x="479.66" y="389.15" fill="#d7ecff" font-size="10">10</text>
  <text x="465.35" y="446.62" fill="#d7ecff" font-size="10">15</text>
  <text x="426.03" y="534.91" fill="#d7ecff" font-size="10">20</text>
  <text x="464.33" y="574.72" fill="#d7ecff" font-size="10">25</text>
  <text x="464.32" y="574.72" fill="#d7ecff" font-size="10">30</text>
  <text x="64" y="28" fill="#e6f0ff" font-size="20" font-family="Consolas, monospace">AK47 10m UNSCOPED</text>
  <text x="64" y="50" fill="#b9d0ef" font-size="13" font-family="Consolas, monospace">weapon=ak47 state=unscoped distance=10m | shots=30</text>
  <text x="64" y="70" fill="#9dc0e8" font-size="12" font-family="Consolas, monospace">RMSE10=0.000 RMSE(all)=0.000 MAX=0.000</text>
  <rect x="700" y="18" width="232" height="70" rx="8" fill="#0f1826" stroke="#2a3b57"/>
  <circle cx="718" cy="38" r="5" fill="#63daff"/>
  <text x="730" y="42" fill="#cfeaff" font-size="12" font-family="Consolas, monospace">Current</text>
  <circle cx="718" cy="58" r="5" fill="#f2ca61"/>
  <text x="730" y="62" fill="#fff2cf" font-size="12" font-family="Consolas, monospace">Reference</text>
  <circle cx="718" cy="78" r="5" fill="#ff7a7a"/>
  <text x="730" y="82" fill="#ffc8c8" font-size="12" font-family="Consolas, monospace">Delta</text>
</svg>